<?xml version="1.0" encoding="iso-8859-1"?>
<!-- Uploaded to: SVG Repo, www.svgrepo.com, Generator: SVG Repo Mixer Tools -->
<svg fill="#000000" height="800px" width="800px" version="1.1" id="Layer_1" xmlns="http://www.w3.org/2000/svg" xmlns:xlink="http://www.w3.org/1999/xlink" 
	 viewBox="0 0 512 512" xml:space="preserve">
<g>
	<g>
		<path d="M391.305,129.434C374.972,68.949,320.162,25.6,256,25.6S137.028,68.949,120.695,129.434C52.54,139.213,0,197.982,0,268.8
			c0,59.708,37.419,110.72,89.984,131.157c-4.361-10.743-7.706-21.99-9.924-33.647C47.462,345.967,25.6,310.059,25.6,268.8
			c0-63.625,51.576-115.2,115.2-115.2c0.435,0,0.845,0.119,1.28,0.128C148.463,96.145,196.719,51.2,256,51.2
			s107.537,44.945,113.92,102.528c0.435-0.009,0.845-0.128,1.28-0.128c63.625,0,115.2,51.575,115.2,115.2
			c0,41.259-21.862,77.167-54.46,97.51c-2.219,11.657-5.564,22.903-9.924,33.647C474.581,379.52,512,328.508,512,268.8
			C512,197.982,459.46,139.213,391.305,129.434z"/>
	</g>
</g>
<g>
	<g>
		<path d="M256,179.2c-84.693,0-153.6,68.907-153.6,153.6S171.307,486.4,256,486.4s153.6-68.907,153.6-153.6
			S340.693,179.2,256,179.2z M243.2,422.4c0-7.057,5.743-12.8,12.8-12.8s12.8,5.743,12.8,12.8s-5.743,12.8-12.8,12.8
			S243.2,429.457,243.2,422.4z M354.697,413.389l-17.237-17.237c-5.001-5.001-13.099-5.001-18.099,0c-5.001,5-5.001,13.099,0,18.099
			l17.237,17.237c-20.156,16.486-45.21,26.846-72.849,28.527c17.493-3.584,30.66-19.063,30.66-37.623
			c0-16.862-10.94-31.027-26.044-36.19c0.119-0.734,0.435-1.417,0.435-2.202v-89.6c0-7.074-5.726-12.8-12.8-12.8
			c-7.074,0-12.8,5.726-12.8,12.8V384c0,0.785,0.316,1.468,0.444,2.21c-15.104,5.163-26.044,19.328-26.044,36.19
			c0,18.56,13.158,34.039,30.66,37.623c-27.648-1.681-52.693-12.049-72.849-28.527l17.237-17.237c5.001-5,5.001-13.099,0-18.099
			c-5.001-5-13.099-5-18.099,0l-17.237,17.237c-15.462-18.91-25.429-42.138-28.015-67.789H153.6c7.074,0,12.8-5.726,12.8-12.8
			c0-7.074-5.726-12.8-12.8-12.8h-24.312c2.586-25.651,12.553-48.879,28.015-67.789l17.237,17.237c5,5.001,13.099,5.001,18.099,0
			s5.001-13.099,0-18.099l-17.237-17.237c18.91-15.462,42.138-25.429,67.789-28.015V230.4c0,7.074,5.726,12.8,12.8,12.8
			c7.074,0,12.8-5.726,12.8-12.8v-24.311c25.651,2.586,48.879,12.553,67.797,28.015l-17.237,17.237
			c-5.001,5.001-5.001,13.099,0,18.099c5,5,13.099,5,18.099,0l17.237-17.237c15.462,18.91,25.429,42.138,28.015,67.789H358.4
			c-7.074,0-12.8,5.726-12.8,12.8c0,7.074,5.726,12.8,12.8,12.8h24.311C380.126,371.251,370.159,394.479,354.697,413.389z"/>
	</g>
</g>
</svg>