<?xml version="1.0" encoding="iso-8859-1"?>
<!-- Uploaded to: SVG Repo, www.svgrepo.com, Generator: SVG Repo Mixer Tools -->
<svg fill="#000000" height="800px" width="800px" version="1.1" id="Layer_1" xmlns="http://www.w3.org/2000/svg" xmlns:xlink="http://www.w3.org/1999/xlink" 
	 viewBox="0 0 492.544 492.544" xml:space="preserve">
<g>
	<g>
		<path d="M246.272,256c-30.72,0-56.32,24.576-56.32,55.296c0,30.72,25.6,55.296,56.32,55.296c30.72,0,56.32-24.576,56.32-55.296
			C302.592,281.6,276.992,256,246.272,256z M246.272,346.112c-19.456,0-35.84-15.36-35.84-34.816
			c0-18.432,16.384-34.816,35.84-34.816s35.84,15.36,35.84,34.816C282.112,330.752,265.728,346.112,246.272,346.112z"/>
	</g>
</g>
<g>
	<g>
		<path d="M422.4,149.504c4.096-13.312,6.144-26.624,5.12-40.96C423.424,49.152,371.2,0,309.76,0h-1.024
			c-49.152,0-94.208,30.72-111.616,73.728c-18.432-14.336-41.984-21.504-65.536-19.456c-33.792,3.072-63.488,25.6-75.776,57.344
			c-5.12,14.336-6.144,29.696-4.096,44.032c-31.744,14.336-51.2,46.08-51.2,79.872c0,49.152,38.912,84.992,92.16,84.992h33.792
			c6.144,92.16,99.328,158.72,113.664,167.936l7.168,4.096l7.168-4.096c11.264-8.192,98.304-68.608,111.616-153.6h10.24
			c104.448-9.216,115.712-72.704,115.712-99.328C492.032,193.536,463.36,158.72,422.4,149.504z M246.272,467.968
			c-21.504-15.36-100.352-77.824-100.352-156.672c0-53.248,45.056-97.28,100.352-97.28c55.296,0,100.352,43.008,100.352,97.28
			C346.624,390.144,267.776,452.608,246.272,467.968z M374.272,314.368h-7.168c0-1.024,0-2.048,0-3.072
			c0-64.512-54.272-117.76-120.832-117.76c-62.464,0-114.688,46.08-119.808,105.472H92.672c-41.984,0-71.68-26.624-71.68-64.512
			c0-28.672,18.432-54.272,46.08-64.512l9.216-3.072l-3.072-9.216c-4.096-13.312-3.072-26.624,1.024-39.936
			c9.216-24.576,31.744-41.984,58.368-45.056c23.552-2.048,46.08,7.168,60.416,24.576l13.312,15.36l4.096-20.48
			c10.24-43.008,50.176-74.752,96.256-74.752h1.024c51.2,0,95.232,40.96,97.28,89.088c1.024,15.36-2.048,29.696-8.192,44.032
			l-4.096,15.36l14.336,1.024c36.864,3.072,64.512,32.768,64.512,67.584C471.552,267.264,454.144,307.2,374.272,314.368z"/>
	</g>
</g>
</svg>