<?xml version="1.0" encoding="iso-8859-1"?>
<!-- Uploaded to: SVG Repo, www.svgrepo.com, Generator: SVG Repo Mixer Tools -->
<svg fill="#000000" height="800px" width="800px" version="1.1" id="Layer_1" xmlns="http://www.w3.org/2000/svg" xmlns:xlink="http://www.w3.org/1999/xlink" 
	 viewBox="0 0 512 512" xml:space="preserve">
<g>
	<g>
		<path d="M345.6,294.404H204.109l-10.65-60.39c-5.513-31.266,15.454-61.21,46.72-66.731c31.266-5.513,61.218,15.454,66.731,46.72
			l7.782,44.117l25.207-4.446l-7.782-44.117c-7.962-45.175-51.209-75.452-96.384-67.49c-45.175,7.962-75.452,51.209-67.49,96.384
			l9.865,55.945H166.4c-14.14,0-25.6,11.46-25.6,25.6v128c0,14.14,11.46,25.6,25.6,25.6h179.2c14.14,0,25.6-11.46,25.6-25.6v-128
			C371.2,305.865,359.74,294.404,345.6,294.404z M345.6,448.004H166.4v-128h179.2V448.004z"/>
	</g>
</g>
<g>
	<g>
		<path d="M391.305,142.238C374.98,81.754,320.162,38.404,256,38.404S137.028,81.754,120.695,142.238
			C52.54,152.017,0,210.786,0,281.604c0,68.881,49.758,126.268,115.2,138.351v-26.231c-51.26-11.674-89.6-57.327-89.6-112.119
			c0-63.625,51.576-115.2,115.2-115.2c0.435,0,0.845,0.119,1.28,0.128C148.463,108.949,196.719,64.004,256,64.004
			s107.537,44.945,113.92,102.528c0.435-0.009,0.845-0.128,1.28-0.128c63.625,0,115.2,51.575,115.2,115.2
			c0,54.793-38.34,100.446-89.6,112.119v26.232c65.442-12.083,115.2-69.47,115.2-138.351
			C512,210.786,459.46,152.017,391.305,142.238z"/>
	</g>
</g>
<g>
	<g>
		<path d="M256,345.604c-7.074,0-12.8,5.726-12.8,12.8v51.2c0,7.074,5.726,12.8,12.8,12.8c7.074,0,12.8-5.726,12.8-12.8v-51.2
			C268.8,351.33,263.074,345.604,256,345.604z"/>
	</g>
</g>
</svg>