<?xml version="1.0" encoding="iso-8859-1"?>
<!-- Uploaded to: SVG Repo, www.svgrepo.com, Generator: SVG Repo Mixer Tools -->
<svg fill="#000000" height="800px" width="800px" version="1.1" id="Layer_1" xmlns="http://www.w3.org/2000/svg" xmlns:xlink="http://www.w3.org/1999/xlink" 
	 viewBox="0 0 512 512" xml:space="preserve">
<g>
	<g>
		<path d="M422.945,212.338c-1.886-84.024-70.824-151.793-155.292-151.793c-39.599,0-77.31,14.905-106.19,41.97
			c-24.983,23.414-41.334,53.993-46.959,87.324C50.101,198.183,0,253.664,0,320.1c0,72.429,58.926,131.354,131.354,131.354h258.833
			c67.168,0,121.813-54.646,121.813-121.814C512,274.816,474.666,226.881,422.945,212.338z M390.186,416.491H131.354
			c-53.15,0-96.39-43.24-96.39-96.39c0-52.587,42.781-95.821,95.365-96.375l16.144-0.17l1.112-16.105
			c4.334-62.769,57.075-111.939,120.069-111.939c66.371,0,120.367,53.997,120.367,120.367c0,3.055-0.117,6.149-0.346,9.199
			l-1.228,16.277l16.154,2.339c42.434,6.145,74.434,43.096,74.434,85.95C477.036,377.531,438.075,416.491,390.186,416.491z"/>
	</g>
</g>
<g>
	<g>
		<polygon points="325.215,242.918 300.493,267.641 334.647,301.796 300.493,335.952 325.215,360.675 384.094,301.796 		"/>
	</g>
</g>
<g>
	<g>
		<polygon points="211.506,267.641 186.785,242.918 127.906,301.796 186.785,360.675 211.506,335.952 177.351,301.796 		"/>
	</g>
</g>
<g>
	<g>
		<polygon points="256.633,213.93 219.637,389.662 255.366,389.662 292.362,213.93 		"/>
	</g>
</g>
</svg>