<?xml version="1.0" encoding="UTF-8" standalone="no"?>
<svg
   id="Ebene_2"
   viewBox="0 0 368.73 104"
   version="1.1"
   sodipodi:docname="metalstack_dark.svg"
   inkscape:export-filename="metalstack_dark.svg"
   inkscape:export-xdpi="96"
   inkscape:export-ydpi="96"
   xmlns:inkscape="http://www.inkscape.org/namespaces/inkscape"
   xmlns:sodipodi="http://sodipodi.sourceforge.net/DTD/sodipodi-0.dtd"
   xmlns="http://www.w3.org/2000/svg"
   xmlns:svg="http://www.w3.org/2000/svg">
  <sodipodi:namedview
     id="namedview18"
     pagecolor="#ffffff"
     bordercolor="#000000"
     borderopacity="0.25"
     inkscape:showpageshadow="2"
     inkscape:pageopacity="0.0"
     inkscape:pagecheckerboard="0"
     inkscape:deskcolor="#d1d1d1"
     showgrid="false">
    <inkscape:page
       x="0"
       y="0"
       width="135961.81"
       height="10816"
       id="page2"
       margin="0"
       bleed="0" />
  </sodipodi:namedview>
  <defs
     id="defs1">
    <style
       id="style1">.cls-1{fill:#004fff;}.cls-2{fill:#09214c;}</style>
  </defs>
  <g
     id="Ebene_1-2">
    <g
       id="combination-mark-primary_double-lockup">
      <g
         id="Text">
        <g
           id="g10">
          <path
             class="cls-1"
             d="M 126.97,43.22 V 20.26 h 5.68 v 2.5 h 0.83 c 0.4,-0.77 1.05,-1.44 1.97,-2.01 0.92,-0.57 2.12,-0.86 3.62,-0.86 1.62,0 2.92,0.32 3.9,0.95 0.98,0.63 1.73,1.46 2.25,2.48 h 0.83 c 0.52,-0.99 1.25,-1.81 2.2,-2.45 0.95,-0.65 2.29,-0.97 4.03,-0.97 1.41,0 2.68,0.3 3.83,0.9 1.15,0.6 2.06,1.51 2.75,2.73 0.69,1.22 1.03,2.76 1.03,4.61 v 15.09 h -5.77 V 28.55 c 0,-1.26 -0.32,-2.21 -0.96,-2.85 -0.64,-0.63 -1.54,-0.95 -2.7,-0.95 -1.31,0 -2.33,0.42 -3.05,1.27 -0.72,0.85 -1.08,2.06 -1.08,3.63 v 13.56 h -5.77 V 28.53 c 0,-1.26 -0.32,-2.21 -0.96,-2.85 -0.64,-0.63 -1.54,-0.95 -2.7,-0.95 -1.31,0 -2.33,0.42 -3.05,1.27 -0.72,0.85 -1.08,2.06 -1.08,3.63 V 43.19 H 127 Z"
             id="path1" />
          <path
             class="cls-1"
             d="m 176.14,43.87 c -2.28,0 -4.3,-0.49 -6.04,-1.46 -1.74,-0.97 -3.1,-2.35 -4.07,-4.12 -0.97,-1.77 -1.46,-3.87 -1.46,-6.27 v -0.55 c 0,-2.41 0.48,-4.5 1.44,-6.27 0.96,-1.77 2.3,-3.15 4.03,-4.12 1.73,-0.97 3.73,-1.46 6.02,-1.46 2.29,0 4.21,0.5 5.88,1.5 1.67,1 2.96,2.39 3.89,4.17 0.93,1.78 1.39,3.84 1.39,6.18 v 1.99 h -16.71 c 0.06,1.57 0.65,2.85 1.76,3.84 1.11,0.99 2.47,1.48 4.07,1.48 1.6,0 2.84,-0.35 3.61,-1.06 0.77,-0.71 1.36,-1.5 1.76,-2.36 l 4.77,2.5 c -0.43,0.8 -1.06,1.67 -1.88,2.62 -0.82,0.94 -1.91,1.74 -3.26,2.41 -1.36,0.66 -3.09,1 -5.19,1 z m -5.6,-14.77 h 10.74 c -0.12,-1.33 -0.66,-2.39 -1.6,-3.19 -0.94,-0.8 -2.17,-1.2 -3.68,-1.2 -1.51,0 -2.82,0.4 -3.75,1.2 -0.93,0.8 -1.5,1.87 -1.71,3.19 z"
             id="path2" />
          <path
             class="cls-1"
             d="m 199.99,43.22 c -1.51,0 -2.74,-0.47 -3.68,-1.41 -0.94,-0.94 -1.41,-2.2 -1.41,-3.77 V 25.08 h -5.74 v -4.81 h 5.74 v -7.13 h 5.83 v 7.13 h 6.3 v 4.81 h -6.3 v 11.94 c 0,0.93 0.43,1.39 1.3,1.39 h 4.44 v 4.81 z"
             id="path3" />
          <path
             class="cls-1"
             d="m 218.98,43.87 c -1.64,0 -3.1,-0.29 -4.4,-0.86 -1.3,-0.57 -2.32,-1.4 -3.08,-2.5 -0.76,-1.1 -1.13,-2.43 -1.13,-4 0,-1.57 0.38,-2.89 1.13,-3.96 0.76,-1.07 1.81,-1.87 3.15,-2.41 1.34,-0.54 2.88,-0.81 4.61,-0.81 h 6.3 v -1.3 c 0,-1.08 -0.34,-1.97 -1.02,-2.66 -0.68,-0.69 -1.76,-1.04 -3.24,-1.04 -1.48,0 -2.53,0.33 -3.24,1 -0.71,0.66 -1.17,1.52 -1.39,2.57 l -5.37,-1.81 c 0.37,-1.17 0.96,-2.25 1.78,-3.22 0.82,-0.97 1.91,-1.76 3.29,-2.36 1.38,-0.6 3.05,-0.9 5.02,-0.9 3.02,0 5.42,0.76 7.18,2.27 1.76,1.51 2.64,3.7 2.64,6.57 v 8.56 c 0,0.93 0.43,1.39 1.3,1.39 h 1.85 v 4.81 h -3.89 c -1.14,0 -2.08,-0.28 -2.82,-0.83 -0.74,-0.56 -1.11,-1.3 -1.11,-2.22 v -0.05 h -0.88 c -0.12,0.37 -0.4,0.86 -0.83,1.46 -0.43,0.6 -1.11,1.13 -2.04,1.6 -0.93,0.46 -2.19,0.69 -3.8,0.69 z M 220,39.15 c 1.64,0 2.97,-0.45 4,-1.37 1.03,-0.91 1.55,-2.12 1.55,-3.63 v -0.46 h -5.88 c -1.08,0 -1.93,0.23 -2.55,0.69 -0.62,0.46 -0.93,1.11 -0.93,1.94 0,0.83 0.32,1.51 0.97,2.04 0.65,0.53 1.59,0.79 2.82,0.79 z"
             id="path4" />
          <path
             class="cls-1"
             d="M 238.15,43.22 V 10.81 h 5.83 v 32.41 z"
             id="path5" />
          <path
             class="cls-1"
             d="m 259.54,43.87 c -2.99,0 -5.45,-0.65 -7.36,-1.94 -1.91,-1.3 -3.07,-3.15 -3.47,-5.56 l 5.37,-1.39 c 0.22,1.08 0.58,1.93 1.09,2.55 0.51,0.62 1.14,1.06 1.9,1.32 0.76,0.26 1.58,0.39 2.48,0.39 1.36,0 2.36,-0.24 3.01,-0.72 0.65,-0.48 0.97,-1.07 0.97,-1.78 0,-0.71 -0.31,-1.26 -0.93,-1.64 -0.62,-0.39 -1.6,-0.7 -2.96,-0.95 l -1.3,-0.23 c -1.6,-0.31 -3.07,-0.73 -4.4,-1.27 -1.33,-0.54 -2.39,-1.29 -3.19,-2.25 -0.8,-0.96 -1.2,-2.19 -1.2,-3.7 0,-2.28 0.83,-4.04 2.5,-5.25 1.67,-1.22 3.86,-1.83 6.57,-1.83 2.56,0 4.69,0.57 6.39,1.71 1.7,1.14 2.81,2.64 3.33,4.49 l -5.42,1.67 c -0.25,-1.17 -0.75,-2.01 -1.5,-2.5 -0.76,-0.49 -1.69,-0.74 -2.8,-0.74 -1.11,0 -1.96,0.19 -2.55,0.58 -0.59,0.39 -0.88,0.92 -0.88,1.6 0,0.74 0.31,1.29 0.93,1.64 0.62,0.36 1.45,0.63 2.5,0.81 l 1.3,0.23 c 1.73,0.31 3.29,0.72 4.7,1.23 1.4,0.51 2.51,1.23 3.33,2.18 0.82,0.94 1.23,2.21 1.23,3.82 0,2.41 -0.87,4.27 -2.62,5.58 -1.74,1.31 -4.08,1.97 -7.01,1.97 z"
             id="path6" />
          <path
             class="cls-1"
             d="m 282.14,43.22 c -1.51,0 -2.74,-0.47 -3.68,-1.41 -0.94,-0.94 -1.41,-2.2 -1.41,-3.77 V 25.08 h -5.74 v -4.81 h 5.74 v -7.13 h 5.83 v 7.13 h 6.3 v 4.81 h -6.3 v 11.94 c 0,0.93 0.43,1.39 1.3,1.39 h 4.44 v 4.81 z"
             id="path7" />
          <path
             class="cls-1"
             d="m 301.12,43.87 c -1.64,0 -3.1,-0.29 -4.4,-0.86 -1.3,-0.57 -2.32,-1.4 -3.08,-2.5 -0.76,-1.1 -1.13,-2.43 -1.13,-4 0,-1.57 0.38,-2.89 1.13,-3.96 0.76,-1.07 1.81,-1.87 3.15,-2.41 1.34,-0.54 2.88,-0.81 4.61,-0.81 h 6.3 v -1.3 c 0,-1.08 -0.34,-1.97 -1.02,-2.66 -0.68,-0.69 -1.76,-1.04 -3.24,-1.04 -1.48,0 -2.53,0.33 -3.24,1 -0.71,0.66 -1.17,1.52 -1.39,2.57 l -5.37,-1.81 c 0.37,-1.17 0.96,-2.25 1.78,-3.22 0.82,-0.97 1.91,-1.76 3.29,-2.36 1.37,-0.6 3.05,-0.9 5.02,-0.9 3.02,0 5.42,0.76 7.18,2.27 1.76,1.51 2.64,3.7 2.64,6.57 v 8.56 c 0,0.93 0.43,1.39 1.3,1.39 h 1.85 v 4.81 h -3.89 c -1.14,0 -2.08,-0.28 -2.82,-0.83 -0.74,-0.56 -1.11,-1.3 -1.11,-2.22 v -0.05 h -0.88 c -0.12,0.37 -0.4,0.86 -0.83,1.46 -0.43,0.6 -1.11,1.13 -2.04,1.6 -0.93,0.46 -2.19,0.69 -3.8,0.69 z m 1.02,-4.72 c 1.64,0 2.97,-0.45 4,-1.37 1.03,-0.91 1.55,-2.12 1.55,-3.63 v -0.46 h -5.88 c -1.08,0 -1.93,0.23 -2.55,0.69 -0.62,0.46 -0.93,1.11 -0.93,1.94 0,0.83 0.32,1.51 0.97,2.04 0.65,0.53 1.59,0.79 2.82,0.79 z"
             id="path8" />
          <path
             class="cls-1"
             d="m 330.62,43.87 c -2.22,0 -4.24,-0.46 -6.04,-1.39 -1.81,-0.93 -3.23,-2.27 -4.28,-4.03 -1.05,-1.76 -1.57,-3.89 -1.57,-6.39 v -0.65 c 0,-2.5 0.52,-4.63 1.57,-6.39 1.05,-1.76 2.48,-3.1 4.28,-4.03 1.81,-0.93 3.82,-1.39 6.04,-1.39 2.22,0 4.07,0.39 5.65,1.16 1.57,0.77 2.85,1.83 3.82,3.17 0.97,1.34 1.61,2.86 1.92,4.56 l -5.65,1.2 c -0.12,-0.93 -0.4,-1.76 -0.83,-2.5 -0.43,-0.74 -1.04,-1.33 -1.83,-1.76 -0.79,-0.43 -1.77,-0.65 -2.94,-0.65 -1.17,0 -2.23,0.25 -3.17,0.76 -0.94,0.51 -1.68,1.27 -2.22,2.27 -0.54,1 -0.81,2.23 -0.81,3.68 v 0.46 c 0,1.45 0.27,2.68 0.81,3.68 0.54,1 1.28,1.76 2.22,2.27 0.94,0.51 2,0.76 3.17,0.76 1.76,0 3.09,-0.45 4,-1.37 0.91,-0.92 1.49,-2.11 1.74,-3.59 l 5.65,1.34 c -0.4,1.64 -1.09,3.13 -2.06,4.47 -0.97,1.34 -2.25,2.4 -3.82,3.17 -1.57,0.77 -3.46,1.16 -5.65,1.16 z"
             id="path9" />
          <path
             class="cls-1"
             d="M 346.5,43.22 V 10.81 h 5.83 v 17.92 h 0.83 l 7.59,-8.47 h 7.59 l -10.6,11.11 10.97,11.85 h -7.5 l -8.06,-9.12 h -0.83 v 9.12 h -5.83 z"
             id="path10" />
        </g>
        <g
           id="g15">
          <path
             d="m 138.32,84.39 c -2.24,0 -4.28,-0.46 -6.1,-1.39 -1.82,-0.93 -3.27,-2.27 -4.33,-4.03 -1.06,-1.76 -1.59,-3.89 -1.59,-6.39 v -0.65 c 0,-2.5 0.53,-4.63 1.59,-6.39 1.06,-1.76 2.5,-3.1 4.33,-4.03 1.82,-0.93 3.86,-1.39 6.1,-1.39 2.24,0 4.12,0.39 5.7,1.16 1.59,0.77 2.88,1.83 3.86,3.17 0.98,1.34 1.63,2.86 1.94,4.56 l -5.7,1.2 c -0.13,-0.93 -0.41,-1.76 -0.84,-2.5 -0.44,-0.74 -1.05,-1.33 -1.85,-1.76 -0.8,-0.43 -1.78,-0.65 -2.97,-0.65 -1.19,0 -2.25,0.25 -3.2,0.76 -0.95,0.51 -1.7,1.27 -2.24,2.27 -0.55,1 -0.82,2.23 -0.82,3.68 v 0.46 c 0,1.45 0.27,2.68 0.82,3.68 0.55,1 1.29,1.76 2.24,2.27 0.95,0.51 2.02,0.76 3.2,0.76 1.78,0 3.12,-0.45 4.04,-1.37 0.92,-0.91 1.5,-2.11 1.75,-3.59 l 5.7,1.34 c -0.41,1.64 -1.1,3.13 -2.08,4.47 -0.98,1.34 -2.27,2.4 -3.86,3.17 -1.59,0.77 -3.49,1.16 -5.7,1.16 z"
             id="path11"
             style="fill:#fbfbfb;fill-opacity:1" />
          <path
             d="m 154.1,83.74 v -32.4 h 5.77 v 32.41 h -5.77 z"
             id="path12"
             style="fill:#fbfbfb;fill-opacity:1" />
          <path
             d="m 176.56,84.39 c -2.29,0 -4.34,-0.46 -6.16,-1.39 -1.82,-0.93 -3.26,-2.27 -4.31,-4.03 -1.05,-1.76 -1.57,-3.87 -1.57,-6.34 v -0.74 c 0,-2.47 0.52,-4.58 1.57,-6.34 1.05,-1.76 2.48,-3.1 4.31,-4.03 1.82,-0.93 3.87,-1.39 6.16,-1.39 2.29,0 4.34,0.46 6.16,1.39 1.82,0.93 3.26,2.27 4.31,4.03 1.05,1.76 1.57,3.87 1.57,6.34 v 0.74 c 0,2.47 -0.53,4.58 -1.57,6.34 -1.05,1.76 -2.48,3.1 -4.31,4.03 -1.82,0.93 -3.87,1.39 -6.16,1.39 z m 0,-5.19 c 1.79,0 3.27,-0.58 4.44,-1.74 1.17,-1.16 1.76,-2.82 1.76,-4.98 v -0.46 c 0,-2.16 -0.58,-3.82 -1.74,-4.98 -1.16,-1.16 -2.65,-1.74 -4.47,-1.74 -1.82,0 -3.27,0.58 -4.44,1.74 -1.17,1.16 -1.76,2.82 -1.76,4.98 v 0.46 c 0,2.16 0.59,3.82 1.76,4.98 1.17,1.16 2.65,1.74 4.44,1.74 z"
             id="path13"
             style="fill:#fbfbfb;fill-opacity:1" />
          <path
             d="m 201.98,84.11 c -1.79,0 -3.36,-0.41 -4.7,-1.23 -1.34,-0.82 -2.38,-1.95 -3.12,-3.4 -0.74,-1.45 -1.11,-3.12 -1.11,-5 v -13.7 h 5.83 v 13.24 c 0,1.73 0.42,3.03 1.27,3.89 0.85,0.86 2.06,1.3 3.63,1.3 1.79,0 3.18,-0.59 4.17,-1.78 0.99,-1.19 1.48,-2.85 1.48,-4.98 V 60.78 h 5.83 v 22.96 h -5.74 v -3.01 h -0.83 c -0.37,0.77 -1.06,1.53 -2.08,2.27 -1.02,0.74 -2.56,1.11 -4.63,1.11 z"
             id="path14"
             style="fill:#fbfbfb;fill-opacity:1" />
          <path
             d="m 230.07,84.39 c -1.82,0 -3.53,-0.46 -5.12,-1.37 -1.59,-0.91 -2.86,-2.25 -3.82,-4 -0.96,-1.76 -1.44,-3.89 -1.44,-6.39 v -0.74 c 0,-2.5 0.48,-4.63 1.44,-6.39 0.96,-1.76 2.22,-3.09 3.8,-4 1.57,-0.91 3.29,-1.37 5.14,-1.37 1.39,0 2.55,0.16 3.5,0.49 0.94,0.32 1.7,0.73 2.29,1.23 0.59,0.49 1.03,1.02 1.34,1.57 h 0.83 V 51.34 h 5.83 v 32.41 h -5.74 v -2.78 h -0.83 c -0.53,0.86 -1.34,1.65 -2.43,2.36 -1.1,0.71 -2.69,1.06 -4.79,1.06 z m 1.76,-5.09 c 1.79,0 3.29,-0.58 4.49,-1.74 1.2,-1.16 1.8,-2.85 1.8,-5.07 v -0.46 c 0,-2.22 -0.59,-3.91 -1.78,-5.07 -1.19,-1.16 -2.69,-1.74 -4.51,-1.74 -1.82,0 -3.29,0.58 -4.49,1.74 -1.2,1.16 -1.81,2.85 -1.81,5.07 v 0.46 c 0,2.22 0.6,3.91 1.81,5.07 1.21,1.16 2.7,1.74 4.49,1.74 z"
             id="path15"
             style="fill:#fbfbfb;fill-opacity:1" />
        </g>
      </g>
      <g
         id="Image">
        <g
           id="g18">
          <path
             class="cls-2"
             d="M 81.43,51.98 52,63.48 74.53,72.26 104,60.78 Z M 0,60.78 29.47,72.26 52,63.48 22.53,52 Z"
             id="path16" />
          <polygon
             class="cls-1"
             points="104,83.74 104,60.78 52,81.04 0,60.78 0,83.74 52,104 "
             id="polygon16" />
          <polygon
             class="cls-2"
             points="74.53,31.74 104,20.26 52,0 0,20.26 29.47,31.74 52,22.96 "
             id="polygon17" />
          <polygon
             class="cls-1"
             points="104,43.22 104,20.26 52,40.51 0,20.26 0,43.22 52,63.48 "
             id="polygon18" />
        </g>
      </g>
    </g>
  </g>
</svg>
