<?xml version="1.0" encoding="utf-8" standalone="yes"?>
<!DOCTYPE svg PUBLIC "-//W3C//DTD SVG 1.1//EN" "http://www.w3.org/Graphics/SVG/1.1/DTD/svg11.dtd">
<svg width="804" height="494" viewBox="0 0 804 494" style="fill:none;stroke:none;fill-rule:evenodd;clip-rule:evenodd;stroke-linecap:round;stroke-linejoin:round;stroke-miterlimit:1.5;" version="1.1" xmlns="http://www.w3.org/2000/svg" xmlns:xlink="http://www.w3.org/1999/xlink"><style id="fontImports"></style><g id="items" style="isolation: isolate"><g id="blend" style="mix-blend-mode:multiply"><g id="g-root--1.cu_sy_1qckz171hl3zsw-fill" data-item-order="-154301" data-item-id="-1.cu_sy_1qckz171hl3zsw" data-item-class="ScenePart Fill Stroke ColorFillGray ColorStrokeGray" data-item-index="-1" data-renderer-id="0" transform="translate(229, 135)"><g id="-1.cu_sy_1qckz171hl3zsw-fill" stroke="none" fill="none"><g><path d="M 125 34L 101 10L 10 166L 34 190L 125 34ZM 125 34L 34 190L 216 190L 125 34Z"></path></g></g></g><g id="g-root-0.line-start_sy_1qckz171hl3zsx-fill" data-item-order="-154298" data-item-id="0.line-start_sy_1qckz171hl3zsx" data-item-class="ScenePart Indexed_0 Stroke ColorStrokeBlack" data-item-index="0" data-renderer-id="0" transform="translate(188, 237)"></g><g id="g-root-6.cu_sy_1d14gnv1hl41dz-fill" data-item-order="-154296" data-item-id="6.cu_sy_1d14gnv1hl41dz" data-item-class="ScenePart Indexed Stroke" data-item-index="6" data-renderer-id="0" transform="translate(298.5, 237)"></g><g id="g-root-5.cu_sy_1d14gnv1hl41dy-fill" data-item-order="-154294" data-item-id="5.cu_sy_1d14gnv1hl41dy" data-item-class="ScenePart Indexed Stroke" data-item-index="5" data-renderer-id="0" transform="translate(298.5, 237)"></g><g id="g-root-4.cu_sy_1hgxysb1hl40lp-fill" data-item-order="-154292" data-item-id="4.cu_sy_1hgxysb1hl40lp" data-item-class="ScenePart Indexed Stroke" data-item-index="4" data-renderer-id="0" transform="translate(298.5, 237)"></g><g id="g-root-3.cu_sy_1hgxysb1hl40lo-fill" data-item-order="-154290" data-item-id="3.cu_sy_1hgxysb1hl40lo" data-item-class="ScenePart Indexed Stroke" data-item-index="3" data-renderer-id="0" transform="translate(299, 190.4805908203125)"></g><g id="g-root-2.cu_sy_1hgxysb1hl40ln-fill" data-item-order="-154288" data-item-id="2.cu_sy_1hgxysb1hl40ln" data-item-class="ScenePart Indexed Stroke" data-item-index="2" data-renderer-id="0" transform="translate(298.5, 109.198974609375)"></g><g id="g-root-1.cu_sy_1hgxysb1hl40lm-fill" data-item-order="-154286" data-item-id="1.cu_sy_1hgxysb1hl40lm" data-item-class="ScenePart Indexed Indexed_1 Stroke" data-item-index="1" data-renderer-id="0" transform="translate(298.5, 27)"></g><g id="g-root-2_90917f1hl5gr3-fill" data-item-order="0" data-item-id="2_90917f1hl5gr3" data-item-class="Icon Stroke SceneTarget Indexed Indexed_1" data-item-index="1" data-renderer-id="0" transform="translate(566, 3)"></g><g id="g-root-tx_toolcomp_1hite1n1hl3zm6-fill" data-item-order="0" data-item-id="tx_toolcomp_1hite1n1hl3zm6" data-item-class="Label Stroke SceneTarget Indexed Indexed_1 ColorStrokeBlack" data-item-index="1" data-renderer-id="0" transform="translate(626, 15)"><g id="tx_toolcomp_1hite1n1hl3zm6-fill" stroke="none" fill="#484848"><g><text style="font-style: normal; font-variant-caps: normal; font-weight: normal; font-stretch: normal; font-size: 20px; line-height: normal; font-family: Arial, Helvetica, sans-serif; font-size-adjust: none; font-kerning: auto; font-variant-alternates: normal; font-variant-ligatures: normal; font-variant-numeric: normal; font-variant-east-asian: normal; font-variant-position: normal; font-variant-emoji: normal; font-feature-settings: normal; font-optical-sizing: auto; font-variation-settings: normal; white-space: pre;"><tspan x="12" y="33" dominant-baseline="ideographic">Tool Complexity</tspan></text></g></g></g><g id="g-root-lock_18i6l3v1hl5fyb-fill" data-item-order="0" data-item-id="lock_18i6l3v1hl5fyb" data-item-class="Icon Stroke SceneTarget Indexed" data-item-index="2" data-renderer-id="0" transform="translate(566, 87)"></g><g id="g-root-tx_security_1qdtx7f1hl41z9-fill" data-item-order="0" data-item-id="tx_security_1qdtx7f1hl41z9" data-item-class="Label Stroke SceneTarget Indexed ColorStrokeBlack" data-item-index="2" data-renderer-id="0" transform="translate(626, 99)"><g id="tx_security_1qdtx7f1hl41z9-fill" stroke="none" fill="#484848"><g><text style="font-style: normal; font-variant-caps: normal; font-weight: normal; font-stretch: normal; font-size: 20px; line-height: normal; font-family: Arial, Helvetica, sans-serif; font-size-adjust: none; font-kerning: auto; font-variant-alternates: normal; font-variant-ligatures: normal; font-variant-numeric: normal; font-variant-east-asian: normal; font-variant-position: normal; font-variant-emoji: normal; font-feature-settings: normal; font-optical-sizing: auto; font-variation-settings: normal; white-space: pre;"><tspan x="12" y="33" dominant-baseline="ideographic">Security Issues</tspan></text></g></g></g><g id="g-root-bank_hvw1gb1hl5fye-fill" data-item-order="0" data-item-id="bank_hvw1gb1hl5fye" data-item-class="Icon Stroke SceneTarget Indexed" data-item-index="3" data-renderer-id="0" transform="translate(566, 171)"></g><g id="g-root-tx_infrastr_4o6dln1hl40lg-fill" data-item-order="0" data-item-id="tx_infrastr_4o6dln1hl40lg" data-item-class="Label Stroke SceneTarget Indexed ColorStrokeBlack" data-item-index="3" data-renderer-id="0" transform="translate(626, 171)"><g id="tx_infrastr_4o6dln1hl40lg-fill" stroke="none" fill="#484848"><g><text style="font-style: normal; font-variant-caps: normal; font-weight: normal; font-stretch: normal; font-size: 20px; line-height: normal; font-family: Arial, Helvetica, sans-serif; font-size-adjust: none; font-kerning: auto; font-variant-alternates: normal; font-variant-ligatures: normal; font-variant-numeric: normal; font-variant-east-asian: normal; font-variant-position: normal; font-variant-emoji: normal; font-feature-settings: normal; font-optical-sizing: auto; font-variation-settings: normal; white-space: pre;"><tspan x="12" y="33" dominant-baseline="ideographic">Infrastructure </tspan><tspan x="12" y="57" dominant-baseline="ideographic">Problems</tspan></text></g></g></g><g id="g-root-tx_cloudnat_18layjf1hl4268-fill" data-item-order="0" data-item-id="tx_cloudnat_18layjf1hl4268" data-item-class="Label Stroke SceneTarget SceneStart ColorStrokeBlack" data-item-index="none" data-renderer-id="0" transform="translate(2, 213)"><g id="tx_cloudnat_18layjf1hl4268-fill" stroke="none" fill="#484848"><g><text style="font-style: normal; font-variant-caps: normal; font-weight: normal; font-stretch: normal; font-size: 20px; line-height: normal; font-family: Arial, Helvetica, sans-serif; font-size-adjust: none; font-kerning: auto; font-variant-alternates: normal; font-variant-ligatures: normal; font-variant-numeric: normal; font-variant-east-asian: normal; font-variant-position: normal; font-variant-emoji: normal; font-feature-settings: normal; font-optical-sizing: auto; font-variation-settings: normal; white-space: pre;"><tspan x="12" y="33" dominant-baseline="ideographic">Cloud-Native </tspan><tspan x="27" y="57" dominant-baseline="ideographic">Challenges</tspan></text></g></g></g><g id="g-root-serv_v7cjtn1hl5edg-fill" data-item-order="0" data-item-id="serv_v7cjtn1hl5edg" data-item-class="Icon Stroke SceneTarget SceneStart ColorStrokeBlack" data-item-index="none" data-renderer-id="0" transform="translate(134, 213)"></g><g id="g-root-1_hu0m6z1hl5gy0-fill" data-item-order="0" data-item-id="1_hu0m6z1hl5gy0" data-item-class="Icon Stroke SceneTarget Indexed" data-item-index="4" data-renderer-id="0" transform="translate(566, 255)"></g><g id="g-root-tx_automati_93zvq31hl3zt7-fill" data-item-order="0" data-item-id="tx_automati_93zvq31hl3zt7" data-item-class="Label Stroke SceneTarget Indexed ColorStrokeBlack" data-item-index="4" data-renderer-id="0" transform="translate(626, 255)"><g id="tx_automati_93zvq31hl3zt7-fill" stroke="none" fill="#484848"><g><text style="font-style: normal; font-variant-caps: normal; font-weight: normal; font-stretch: normal; font-size: 20px; line-height: normal; font-family: Arial, Helvetica, sans-serif; font-size-adjust: none; font-kerning: auto; font-variant-alternates: normal; font-variant-ligatures: normal; font-variant-numeric: normal; font-variant-east-asian: normal; font-variant-position: normal; font-variant-emoji: normal; font-feature-settings: normal; font-optical-sizing: auto; font-variation-settings: normal; white-space: pre;"><tspan x="12" y="33" dominant-baseline="ideographic">Automation </tspan><tspan x="12" y="57" dominant-baseline="ideographic">Gaps</tspan></text></g></g></g><g id="g-root-grou_mbpjkr1hl5f65-fill" data-item-order="0" data-item-id="grou_mbpjkr1hl5f65" data-item-class="Icon Stroke SceneTarget Indexed" data-item-index="5" data-renderer-id="0" transform="translate(566, 339)"></g><g id="g-root-tx_cultural_metx0b1hl41e2-fill" data-item-order="0" data-item-id="tx_cultural_metx0b1hl41e2" data-item-class="Label Stroke SceneTarget Indexed ColorStrokeBlack" data-item-index="5" data-renderer-id="0" transform="translate(626, 351)"><g id="tx_cultural_metx0b1hl41e2-fill" stroke="none" fill="#484848"><g><text style="font-style: normal; font-variant-caps: normal; font-weight: normal; font-stretch: normal; font-size: 20px; line-height: normal; font-family: Arial, Helvetica, sans-serif; font-size-adjust: none; font-kerning: auto; font-variant-alternates: normal; font-variant-ligatures: normal; font-variant-numeric: normal; font-variant-east-asian: normal; font-variant-position: normal; font-variant-emoji: normal; font-feature-settings: normal; font-optical-sizing: auto; font-variation-settings: normal; white-space: pre;"><tspan x="12" y="33" dominant-baseline="ideographic">Cultural Barriers</tspan></text></g></g></g><g id="g-root-warn_v5h4kb1hl5fd3-fill" data-item-order="0" data-item-id="warn_v5h4kb1hl5fd3" data-item-class="Icon Stroke SceneTarget Indexed" data-item-index="6" data-renderer-id="0" transform="translate(566, 423)"></g><g id="g-root-tx_failures_vagx971hl40ld-fill" data-item-order="0" data-item-id="tx_failures_vagx971hl40ld" data-item-class="Label Stroke SceneTarget Indexed ColorStrokeBlack" data-item-index="6" data-renderer-id="0" transform="translate(626, 423)"><g id="tx_failures_vagx971hl40ld-fill" stroke="none" fill="#484848"><g><text style="font-style: normal; font-variant-caps: normal; font-weight: normal; font-stretch: normal; font-size: 20px; line-height: normal; font-family: Arial, Helvetica, sans-serif; font-size-adjust: none; font-kerning: auto; font-variant-alternates: normal; font-variant-ligatures: normal; font-variant-numeric: normal; font-variant-east-asian: normal; font-variant-position: normal; font-variant-emoji: normal; font-feature-settings: normal; font-optical-sizing: auto; font-variation-settings: normal; white-space: pre;"><tspan x="12" y="33" dominant-baseline="ideographic">Failure </tspan><tspan x="12" y="57" dominant-baseline="ideographic">Scenarios</tspan></text></g></g></g><g id="g-root--1.cu_sy_1qckz171hl3zsw-stroke" data-item-order="-154301" data-item-id="-1.cu_sy_1qckz171hl3zsw" data-item-class="ScenePart Fill Stroke ColorFillGray ColorStrokeGray" data-item-index="-1" data-renderer-id="0" transform="translate(229, 135)"><g id="-1.cu_sy_1qckz171hl3zsw-stroke" fill="none" stroke-linecap="round" stroke-linejoin="round" stroke-miterlimit="4" stroke="#bbbbbb" stroke-width="2"><g><path d="M 125 34L 101 10L 10 166L 34 190L 125 34ZM 125 34L 34 190L 216 190L 125 34Z"></path></g></g></g><g id="g-root-0.line-start_sy_1qckz171hl3zsx-stroke" data-item-order="-154298" data-item-id="0.line-start_sy_1qckz171hl3zsx" data-item-class="ScenePart Indexed_0 Stroke ColorStrokeBlack" data-item-index="0" data-renderer-id="0" transform="translate(188, 237)"><g id="0.line-start_sy_1qckz171hl3zsx-stroke" fill="none" stroke-linecap="round" stroke-linejoin="round" stroke-miterlimit="4" stroke="#484848" stroke-width="2"><g><path d="M 10 10L 120.5 10"></path></g></g></g><g id="g-root-6.cu_sy_1d14gnv1hl41dz-stroke" data-item-order="-154296" data-item-id="6.cu_sy_1d14gnv1hl41dz" data-item-class="ScenePart Indexed Stroke" data-item-index="6" data-renderer-id="0" transform="translate(298.5, 237)"><g id="6.cu_sy_1d14gnv1hl41dz-stroke" fill="none" stroke-linecap="round" stroke-linejoin="round" stroke-miterlimit="4" stroke="#795ee3" stroke-width="2"><g><path d="M 259.5 220L 118.5 40.25L 10 10M 260.556824 211.580383L 259.493896 219.977722L 251.096436 218.914856"></path></g></g></g><g id="g-root-5.cu_sy_1d14gnv1hl41dy-stroke" data-item-order="-154294" data-item-id="5.cu_sy_1d14gnv1hl41dy" data-item-class="ScenePart Indexed Stroke" data-item-index="5" data-renderer-id="0" transform="translate(298.5, 237)"><g id="5.cu_sy_1d14gnv1hl41dy-stroke" fill="none" stroke-linecap="round" stroke-linejoin="round" stroke-miterlimit="4" stroke="#b65edf" stroke-width="2"><g><path d="M 259.5 136L 112 28.25L 10 10M 258.221069 127.648468L 259.472839 136.019745L 251.101501 137.271606"></path></g></g></g><g id="g-root-4.cu_sy_1hgxysb1hl40lp-stroke" data-item-order="-154292" data-item-id="4.cu_sy_1hgxysb1hl40lp" data-item-class="ScenePart Indexed Stroke" data-item-index="4" data-renderer-id="0" transform="translate(298.5, 237)"><g id="4.cu_sy_1hgxysb1hl40lp-stroke" fill="none" stroke-linecap="round" stroke-linejoin="round" stroke-miterlimit="4" stroke="#da5da8" stroke-width="2"><g><path d="M 259.5 52.5L 105 16L 10 10M 255.061829 45.254517L 259.499268 52.462463L 252.29126 56.899994"></path></g></g></g><g id="g-root-3.cu_sy_1hgxysb1hl40lo-stroke" data-item-order="-154290" data-item-id="3.cu_sy_1hgxysb1hl40lo" data-item-class="ScenePart Indexed Stroke" data-item-index="3" data-renderer-id="0" transform="translate(299, 190.4805908203125)"><g id="3.cu_sy_1hgxysb1hl40lo-stroke" fill="none" stroke-linecap="round" stroke-linejoin="round" stroke-miterlimit="4" stroke="#e15e5a" stroke-width="2"><g><path d="M 259.5 14.519379L 97.75 50.269379L 10 56.519379M 252.325562 10L 259.484985 14.51529L 254.969727 21.674805"></path></g></g></g><g id="g-root-2.cu_sy_1hgxysb1hl40ln-stroke" data-item-order="-154288" data-item-id="2.cu_sy_1hgxysb1hl40ln" data-item-class="ScenePart Indexed Stroke" data-item-index="2" data-renderer-id="0" transform="translate(298.5, 109.198974609375)"><g id="2.cu_sy_1hgxysb1hl40ln-stroke" fill="none" stroke-linecap="round" stroke-linejoin="round" stroke-miterlimit="4" stroke="#dd8433" stroke-width="2"><g><path d="M 259.5 11.801025L 90.75 119.80101L 10 137.80101M 251.228027 10L 259.497437 11.806152L 257.691345 20.075638"></path></g></g></g><g id="g-root-1.cu_sy_1hgxysb1hl40lm-stroke" data-item-order="-154286" data-item-id="1.cu_sy_1hgxysb1hl40lm" data-item-class="ScenePart Indexed Indexed_1 Stroke" data-item-index="1" data-renderer-id="0" transform="translate(298.5, 27)"><g id="1.cu_sy_1hgxysb1hl40lm-stroke" fill="none" stroke-linecap="round" stroke-linejoin="round" stroke-miterlimit="4" stroke="#e3cd09" stroke-width="2"><g><path d="M 10 220L 83.5 190L 259.5 10M 251.035583 10.000031L 259.499939 10.000031L 259.5 18.464447"></path></g></g></g><g id="g-root-2_90917f1hl5gr3-stroke" data-item-order="0" data-item-id="2_90917f1hl5gr3" data-item-class="Icon Stroke SceneTarget Indexed Indexed_1" data-item-index="1" data-renderer-id="0" transform="translate(566, 3)"><g id="2_90917f1hl5gr3-stroke" fill="none" stroke-linecap="round" stroke-linejoin="round" stroke-miterlimit="4" stroke="#e3cd09" stroke-width="2"><g><path d="M 29 34.001999C 29 36.763424 31.238577 39.001999 34 39.001999C 36.761425 39.001999 39 36.763424 39 34.001999C 39 31.240576 36.761425 29.002001 34 29.002001C 31.238577 29.002001 29 31.240576 29 34.001999ZM 18 34.001999C 18 42.838554 25.163445 50.001999 34 50.001999C 42.836555 50.001999 50 42.838554 50 34.001999C 50 25.165443 42.836555 18.001999 34 18.001999C 25.163445 18.001999 18 25.165443 18 34.001999ZM 34 18.001999L 34 11.002M 45.313999 22.688L 50.264 17.737999M 50 34.001999L 57 34.001999M 45.313999 45.316002L 50.264 50.265999M 34 50.001999L 34 57.001999M 22.686001 45.316002L 17.736 50.265999M 18 34.001999L 11 34.001999M 22.686001 22.688L 17.736 17.737999"></path></g></g></g><g id="g-root-tx_toolcomp_1hite1n1hl3zm6-stroke" data-item-order="0" data-item-id="tx_toolcomp_1hite1n1hl3zm6" data-item-class="Label Stroke SceneTarget Indexed Indexed_1 ColorStrokeBlack" data-item-index="1" data-renderer-id="0" transform="translate(626, 15)"></g><g id="g-root-lock_18i6l3v1hl5fyb-stroke" data-item-order="0" data-item-id="lock_18i6l3v1hl5fyb" data-item-class="Icon Stroke SceneTarget Indexed" data-item-index="2" data-renderer-id="0" transform="translate(566, 87)"><g id="lock_18i6l3v1hl5fyb-stroke" fill="none" stroke-linecap="round" stroke-linejoin="round" stroke-miterlimit="4" stroke="#dd8433" stroke-width="2"><g><path d="M 11 57L 11 37M 11 41L 25 41C 28.313709 41 31 43.686291 31 47L 43 47C 46.313709 47 49 49.686291 49 53L 11 53ZM 31 47L 25 47M 39 21L 55 21C 55 21 57 21 57 23L 57 37C 57 37 57 39 55 39L 39 39C 39 39 37 39 37 37L 37 23C 37 23 37 21 39 21M 41 21L 41 17C 41 13.686292 43.686291 11 47 11C 50.313709 11 53 13.686292 53 17L 53 21M 44 30C 44 31.656855 45.343147 33 47 33C 48.656857 33 50 31.656855 50 30C 50 28.343147 48.656857 27 47 27C 45.343147 27 44 28.343147 44 30"></path></g></g></g><g id="g-root-tx_security_1qdtx7f1hl41z9-stroke" data-item-order="0" data-item-id="tx_security_1qdtx7f1hl41z9" data-item-class="Label Stroke SceneTarget Indexed ColorStrokeBlack" data-item-index="2" data-renderer-id="0" transform="translate(626, 99)"></g><g id="g-root-bank_hvw1gb1hl5fye-stroke" data-item-order="0" data-item-id="bank_hvw1gb1hl5fye" data-item-class="Icon Stroke SceneTarget Indexed" data-item-index="3" data-renderer-id="0" transform="translate(566, 171)"><g id="bank_hvw1gb1hl5fye-stroke" fill="none" stroke-linecap="round" stroke-linejoin="round" stroke-miterlimit="4" stroke="#e15e5a" stroke-width="2"><g><path d="M 54.262856 28.857143L 13.737143 28.857143C 11.817142 28.857143 10.994286 26.765715 12.502857 25.771429L 32.765713 12.502857C 33.52755 12.054692 34.47245 12.054692 35.234283 12.502857L 55.497147 25.771429C 57.005714 26.765715 56.182858 28.857143 54.262856 28.857143ZM 13.428572 47.714287L 54.57143 47.714287C 54.57143 47.714287 56.285713 47.714287 56.285713 49.428574L 56.285713 54.57143C 56.285713 54.57143 56.285713 56.285713 54.57143 56.285713L 13.428572 56.285713C 13.428572 56.285713 11.714286 56.285713 11.714286 54.57143L 11.714286 49.428574C 11.714286 49.428574 11.714286 47.714287 13.428572 47.714287M 16.857143 28.857143L 16.857143 47.714287M 25.428572 28.857143L 25.428572 47.714287M 34 28.857143L 34 47.714287M 42.57143 28.857143L 42.57143 47.714287M 51.142857 28.857143L 51.142857 47.714287"></path></g></g></g><g id="g-root-tx_infrastr_4o6dln1hl40lg-stroke" data-item-order="0" data-item-id="tx_infrastr_4o6dln1hl40lg" data-item-class="Label Stroke SceneTarget Indexed ColorStrokeBlack" data-item-index="3" data-renderer-id="0" transform="translate(626, 171)"></g><g id="g-root-tx_cloudnat_18layjf1hl4268-stroke" data-item-order="0" data-item-id="tx_cloudnat_18layjf1hl4268" data-item-class="Label Stroke SceneTarget SceneStart ColorStrokeBlack" data-item-index="none" data-renderer-id="0" transform="translate(2, 213)"></g><g id="g-root-serv_v7cjtn1hl5edg-stroke" data-item-order="0" data-item-id="serv_v7cjtn1hl5edg" data-item-class="Icon Stroke SceneTarget SceneStart ColorStrokeBlack" data-item-index="none" data-renderer-id="0" transform="translate(134, 213)"><g id="serv_v7cjtn1hl5edg-stroke" fill="none" stroke-linecap="round" stroke-linejoin="round" stroke-miterlimit="4" stroke="#484848" stroke-width="2"><g><path d="M 51 23.854C 50.966511 21.881111 50.131657 20.006788 48.687508 18.662231C 47.243355 17.317677 45.314247 16.618662 43.343998 16.726C 41.574951 13.192698 37.951328 10.972141 34 11C 28.620384 10.922284 24.105413 15.036353 23.684 20.4C 22.078552 20.044861 20.398424 20.42691 19.104412 21.441368C 17.810402 22.455822 17.038349 23.996189 17 25.639999C 17 31.084 22.911999 31 22.911999 31L 44.348 31C 44.348 31 51 30.158001 51 23.854ZM 23.5 51.498001C 23.224117 51.498001 23.00037 51.721455 23.000004 51.997337C 22.999638 52.273216 23.222792 52.497265 23.498672 52.497997C 23.774551 52.498734 23.998898 52.275879 24 52C 24.000534 51.867226 23.948027 51.739738 23.854143 51.645855C 23.760258 51.551971 23.632771 51.499466 23.5 51.5L 23.5 51.5M 28.5 51.498001C 28.224119 51.498001 28.00037 51.721455 28.000004 51.997337C 27.999638 52.273216 28.222792 52.497265 28.498672 52.497997C 28.774553 52.498734 28.998896 52.275879 29 52C 29.000534 51.867226 28.948027 51.739738 28.854143 51.645855C 28.760258 51.551971 28.632771 51.499466 28.5 51.5L 28.5 51.5M 51 54C 51 55.656857 49.656857 57 48 57L 20 57C 18.343147 57 17 55.656857 17 54L 17 50C 17 48.343147 18.343147 47 20 47L 48 47C 49.656857 47 51 48.343147 51 50ZM 23.5 41.498001C 23.224117 41.498001 23.00037 41.721455 23.000004 41.997337C 22.999638 42.273216 23.222792 42.497265 23.498672 42.497997C 23.774551 42.498734 23.998898 42.275879 24 42C 24.000534 41.867226 23.948027 41.739738 23.854143 41.645855C 23.760258 41.551971 23.632771 41.499466 23.5 41.5L 23.5 41.5M 28.5 41.498001C 28.224119 41.498001 28.00037 41.721455 28.000004 41.997337C 27.999638 42.273216 28.222792 42.497265 28.498672 42.497997C 28.774553 42.498734 28.998896 42.275879 29 42C 29.000534 41.867226 28.948027 41.739738 28.854143 41.645855C 28.760258 41.551971 28.632771 41.499466 28.5 41.5L 28.5 41.5M 51 44C 51 45.656857 49.656857 47 48 47L 20 47C 18.343147 47 17 45.656857 17 44L 17 40C 17 38.343147 18.343147 37 20 37L 48 37C 49.656857 37 51 38.343147 51 40Z"></path></g></g></g><g id="g-root-1_hu0m6z1hl5gy0-stroke" data-item-order="0" data-item-id="1_hu0m6z1hl5gy0" data-item-class="Icon Stroke SceneTarget Indexed" data-item-index="4" data-renderer-id="0" transform="translate(566, 255)"><g id="1_hu0m6z1hl5gy0-stroke" fill="none" stroke-linecap="round" stroke-linejoin="round" stroke-miterlimit="4" stroke="#da5da8" stroke-width="2"><g><path d="M 29.521999 47.594002L 19.062 40.073997M 24.091999 34.346001L 32.690002 40.720001M 11.642 33.767998C 11.642 37.21315 14.434848 40.006001 17.880001 40.006001C 21.325153 40.006001 24.118 37.21315 24.118 33.767998C 24.118 30.322847 21.325153 27.530001 17.880001 27.530001C 14.434848 27.530001 11.642 30.322847 11.642 33.767998M 23.594 31.266001L 32.93 22.174M 30.063999 15.618L 17.504 27.542M 29.879999 17.274C 29.879478 20.290947 32.32505 22.736942 35.341999 22.736942C 38.358948 22.736942 40.80452 20.290947 40.804001 17.274C 40.80452 14.257052 38.358948 11.811057 35.341999 11.811057C 32.32505 11.811057 29.879478 14.257052 29.879999 17.274M 40.400002 19.338001L 45.348 24.4C 46.378819 25.452827 46.401703 27.129435 45.400002 28.210001L 45.400002 28.209999C 44.885574 28.763903 44.166599 29.08275 43.410717 29.092199C 42.654835 29.101646 41.928116 28.800871 41.400002 28.260002L 35.959999 22.702M 12.164 56.189999L 56.164001 56.189999M 29.521999 51.338001L 29.521999 45.894001C 29.580809 42.721199 32.169655 40.179893 35.343002 40.179893C 38.51635 40.179893 41.105194 42.721199 41.164001 45.894001L 41.164001 51.254002M 16.880001 33.436001C 16.880001 33.988285 17.327715 34.436001 17.880001 34.436001C 18.432285 34.436001 18.880001 33.988285 18.880001 33.436001C 18.880001 32.883713 18.432285 32.436001 17.880001 32.436001C 17.327715 32.436001 16.880001 32.883713 16.880001 33.436001M 34.341999 45.849998C 34.341999 46.402287 34.789715 46.849998 35.341999 46.849998C 35.894287 46.849998 36.341999 46.402287 36.341999 45.849998C 36.341999 45.297714 35.894287 44.849998 35.341999 44.849998C 34.789715 44.849998 34.341999 45.297714 34.341999 45.849998M 28.358 51.338001L 42.231998 51.338001C 43.336571 51.338001 44.231998 52.233429 44.231998 53.338001L 44.231998 56.189999L 44.231998 56.189999L 26.358 56.189999L 26.358 56.189999L 26.358 53.338001C 26.358 52.233429 27.253431 51.338001 28.358 51.338001ZM 44.799999 23.818001C 45.17907 23.343254 45.717918 23.022644 46.316002 22.916C 48.798683 22.461636 51.354969 23.132736 53.294308 24.748016C 55.233646 26.363295 56.355934 28.756084 56.358002 31.280001C 56.358002 32.660713 55.238712 33.779999 53.858002 33.779999C 52.477287 33.779999 51.358002 32.660713 51.358002 31.280001C 51.35656 30.23682 50.890659 29.248459 50.086891 28.583487C 49.283123 27.918514 48.224987 27.646002 47.200001 27.84C 46.818302 27.907465 46.426197 27.886251 46.054001 27.778002M 44.243999 28.851999C 44.328419 29.323595 44.275661 29.809511 44.092003 30.252001C 43.681549 31.211271 43.719944 32.303558 44.196747 33.231644C 44.67355 34.159721 45.539146 34.827038 46.558002 35.052002C 47.906677 35.349129 48.759129 36.683319 48.461998 38.031998C 48.164871 39.38068 46.830681 40.233131 45.481998 39.935997C 43.019894 39.389999 40.92701 37.77961 39.768383 35.539597C 38.609756 33.299583 38.504852 30.660921 39.481998 28.335999C 39.621155 27.998751 39.832825 27.696262 40.102001 27.450001"></path></g></g></g><g id="g-root-tx_automati_93zvq31hl3zt7-stroke" data-item-order="0" data-item-id="tx_automati_93zvq31hl3zt7" data-item-class="Label Stroke SceneTarget Indexed ColorStrokeBlack" data-item-index="4" data-renderer-id="0" transform="translate(626, 255)"></g><g id="g-root-grou_mbpjkr1hl5f65-stroke" data-item-order="0" data-item-id="grou_mbpjkr1hl5f65" data-item-class="Icon Stroke SceneTarget Indexed" data-item-index="5" data-renderer-id="0" transform="translate(566, 339)"><g id="grou_mbpjkr1hl5f65-stroke" fill="none" stroke-linecap="round" stroke-linejoin="round" stroke-miterlimit="4" stroke="#b65edf" stroke-width="2"><g><path d="M 21.015999 39.924L 17.416 39.924C 16.433748 39.923569 15.597196 39.209915 15.441999 38.239998L 14.76 34L 10.976 34L 13.814 25.732C 14.76 22.892 15.932 21 18.546 21C 21.16 21 22.33 22.892 23.276001 25.732L 24.251999 28.658001M 14.516 15C 14.516 17.209139 16.306862 19 18.515999 19C 20.72514 19 22.515999 17.209139 22.515999 15C 22.515999 12.790861 20.72514 11 18.515999 11C 16.306862 11 14.516 12.790861 14.516 15M 47.015999 39.924L 50.588001 39.924C 51.570251 39.923569 52.406803 39.209915 52.562 38.239998L 53.240002 34L 57.023998 34L 54.186001 25.732C 53.240002 22.892 52.068001 21 49.453999 21C 46.84 21 45.669998 22.892 44.723999 25.732L 43.743999 28.667999M 45.484001 15C 45.484001 17.209139 47.27486 19 49.484001 19C 51.693138 19 53.484001 17.209139 53.484001 15C 53.484001 12.790861 51.693138 11 49.484001 11C 47.27486 11 45.484001 12.790861 45.484001 15M 27.02 20C 27.02 23.865993 30.154007 27 34.02 27C 37.885994 27 41.02 23.865993 41.02 20C 41.02 16.134007 37.885994 13 34.02 13C 30.154007 13 27.02 16.134007 27.02 20M 27.114 21.153999C 29.767778 21.124382 32.281769 19.959484 34.02 17.954C 35.756821 19.960228 38.270576 21.125355 40.924 21.153999M 38.454002 31.43L 34.02 38.412003L 29.624001 31.402M 34.02 30C 37.540665 29.996502 40.602837 32.41148 41.419998 35.835999L 45 47L 39.085999 47L 37.313999 55.411999C 37.119102 56.337826 36.302116 57.000423 35.356003 57L 32.599998 57C 31.654633 56.999477 30.838745 56.337093 30.643999 55.411999L 28.870001 47L 23 47L 26.629999 35.835999C 27.446299 32.415115 30.503071 30.001133 34.02 30Z"></path></g></g></g><g id="g-root-tx_cultural_metx0b1hl41e2-stroke" data-item-order="0" data-item-id="tx_cultural_metx0b1hl41e2" data-item-class="Label Stroke SceneTarget Indexed ColorStrokeBlack" data-item-index="5" data-renderer-id="0" transform="translate(626, 351)"></g><g id="g-root-warn_v5h4kb1hl5fd3-stroke" data-item-order="0" data-item-id="warn_v5h4kb1hl5fd3" data-item-class="Icon Stroke SceneTarget Indexed" data-item-index="6" data-renderer-id="0" transform="translate(566, 423)"><g id="warn_v5h4kb1hl5fd3-stroke" fill="none" stroke-linecap="round" stroke-linejoin="round" stroke-miterlimit="4" stroke="#795ee3" stroke-width="2"><g><path d="M 51 29L 51 19C 51 17.895432 50.104568 17 49 17L 29.236 17C 28.478668 16.999596 27.786528 16.571459 27.448 15.894L 25.552 12.106C 25.213474 11.428541 24.521332 11.000404 23.764 11L 13 11C 11.895431 11 11 11.895431 11 13L 11 43C 11 44.104568 11.895431 45 13 45L 29 45M 45 51C 45.276142 51 45.5 51.223858 45.5 51.5C 45.5 51.776142 45.276142 52 45 52C 44.723858 52 44.5 51.776142 44.5 51.5C 44.5 51.223858 44.723858 51 45 51M 45 47L 45 41M 46.675999 35C 46.345634 34.381348 45.701336 33.995003 45 33.995003C 44.298668 33.995003 43.654366 34.381348 43.324001 35L 33.211998 54.27C 32.908127 54.847462 32.931698 55.54245 33.274002 56.098C 33.620461 56.656097 34.231113 56.995094 34.888 56.994003L 55.112 56.993999C 55.76889 56.995094 56.379543 56.656097 56.726002 56.098003C 57.068298 55.54245 57.091869 54.847462 56.787998 54.27Z"></path></g></g></g><g id="g-root-tx_failures_vagx971hl40ld-stroke" data-item-order="0" data-item-id="tx_failures_vagx971hl40ld" data-item-class="Label Stroke SceneTarget Indexed ColorStrokeBlack" data-item-index="6" data-renderer-id="0" transform="translate(626, 423)"></g></g></g></svg>