<svg xmlns="http://www.w3.org/2000/svg" viewBox="0 0 368.73 104"><defs><style>.cls-1,.cls-2{fill:#fff;}.cls-2{opacity:0.6;}</style></defs><g id="Ebene_2" data-name="Ebene 2"><g id="Ebene_9" data-name="Ebene 9"><g id="combination-mark-white-transparent_double-lockup"><g id="Text"><path class="cls-1" d="M127,43.22v-23h5.68v2.5h.82a5.34,5.34,0,0,1,2-2,6.82,6.82,0,0,1,3.63-.85,7.09,7.09,0,0,1,3.89.94,6.38,6.38,0,0,1,2.25,2.48H146a6.88,6.88,0,0,1,2.2-2.45,7.1,7.1,0,0,1,4-1,8.09,8.09,0,0,1,3.82.9,6.63,6.63,0,0,1,2.75,2.73,9.28,9.28,0,0,1,1,4.61V43.22H154.1V28.54a3.83,3.83,0,0,0-1-2.84,3.69,3.69,0,0,0-2.71-.95A3.78,3.78,0,0,0,147.38,26a5.51,5.51,0,0,0-1.07,3.63V43.22h-5.78V28.54a3.83,3.83,0,0,0-1-2.84,3.65,3.65,0,0,0-2.7-.95A3.77,3.77,0,0,0,133.82,26a5.46,5.46,0,0,0-1.08,3.63V43.22Z"/><path class="cls-1" d="M176.14,43.87a12.24,12.24,0,0,1-6-1.46A10.28,10.28,0,0,1,166,38.29,12.91,12.91,0,0,1,164.57,32v-.56A13,13,0,0,1,166,25.19a10,10,0,0,1,4-4.12,12,12,0,0,1,6-1.46,11.23,11.23,0,0,1,5.88,1.5,10.43,10.43,0,0,1,3.89,4.17,13.16,13.16,0,0,1,1.39,6.18v2H170.5a5.17,5.17,0,0,0,1.75,3.84,5.92,5.92,0,0,0,4.08,1.48,5.21,5.21,0,0,0,3.61-1.06,7.55,7.55,0,0,0,1.76-2.36l4.77,2.5a14.65,14.65,0,0,1-1.88,2.61,9.86,9.86,0,0,1-3.26,2.41A11.74,11.74,0,0,1,176.14,43.87Zm-5.6-14.77h10.74a4.59,4.59,0,0,0-1.59-3.2A5.51,5.51,0,0,0,176,24.7a5.56,5.56,0,0,0-3.76,1.2A5.25,5.25,0,0,0,170.54,29.1Z"/><path class="cls-1" d="M200,43.22a5,5,0,0,1-3.68-1.41A5.11,5.11,0,0,1,194.9,38v-13h-5.74V20.26h5.74V13.13h5.83v7.13H207v4.81h-6.3V37c0,.92.43,1.38,1.3,1.38h4.44v4.82Z"/><path class="cls-1" d="M219,43.87a10.83,10.83,0,0,1-4.4-.86,7.12,7.12,0,0,1-3.08-2.5,6.83,6.83,0,0,1-1.13-4,6.62,6.62,0,0,1,1.13-4,6.92,6.92,0,0,1,3.15-2.41,12.25,12.25,0,0,1,4.6-.81h6.3V28a3.65,3.65,0,0,0-1-2.66,4.39,4.39,0,0,0-3.24-1,4.57,4.57,0,0,0-3.24,1,4.73,4.73,0,0,0-1.39,2.57l-5.37-1.81a9.45,9.45,0,0,1,1.78-3.22,8.9,8.9,0,0,1,3.29-2.36,12.52,12.52,0,0,1,5-.9,10.61,10.61,0,0,1,7.18,2.27,8.18,8.18,0,0,1,2.64,6.57V37q0,1.38,1.29,1.38h1.86v4.82h-3.89a4.65,4.65,0,0,1-2.83-.83,2.66,2.66,0,0,1-1.11-2.23v0h-.88a6.1,6.1,0,0,1-.83,1.46,5.37,5.37,0,0,1-2,1.59A8.46,8.46,0,0,1,219,43.87Zm1-4.72a5.84,5.84,0,0,0,4-1.37,4.62,4.62,0,0,0,1.55-3.64v-.46h-5.88a4.13,4.13,0,0,0-2.55.7,2.3,2.3,0,0,0-.92,1.94,2.51,2.51,0,0,0,1,2A4.43,4.43,0,0,0,220,39.15Z"/><path class="cls-1" d="M238.15,43.22V10.81H244V43.22Z"/><path class="cls-1" d="M259.54,43.87a12.83,12.83,0,0,1-7.36-1.95,8,8,0,0,1-3.47-5.55L254.08,35a5.57,5.57,0,0,0,1.09,2.54,4.18,4.18,0,0,0,1.89,1.32,7.33,7.33,0,0,0,2.48.4,5.08,5.08,0,0,0,3-.72,2.14,2.14,0,0,0,1-1.78,1.86,1.86,0,0,0-.92-1.65,9.11,9.11,0,0,0-3-1l-1.29-.23a22.71,22.71,0,0,1-4.4-1.27,8.13,8.13,0,0,1-3.2-2.24,5.61,5.61,0,0,1-1.2-3.71,6.1,6.1,0,0,1,2.5-5.25,10.88,10.88,0,0,1,6.57-1.83A11.18,11.18,0,0,1,265,21.32a7.91,7.91,0,0,1,3.34,4.49l-5.42,1.67a3.76,3.76,0,0,0-1.5-2.5,5.07,5.07,0,0,0-2.81-.74,4.57,4.57,0,0,0-2.54.58,1.8,1.8,0,0,0-.88,1.59,1.78,1.78,0,0,0,.92,1.65,8.15,8.15,0,0,0,2.5.81l1.3.23a28.4,28.4,0,0,1,4.7,1.23,7.89,7.89,0,0,1,3.33,2.17,5.62,5.62,0,0,1,1.23,3.82,6.55,6.55,0,0,1-2.62,5.58A11.39,11.39,0,0,1,259.54,43.87Z"/><path class="cls-1" d="M282.14,43.22a5,5,0,0,1-3.68-1.41A5.08,5.08,0,0,1,277,38v-13H271.3V20.26H277V13.13h5.84v7.13h6.29v4.81h-6.29V37q0,1.38,1.29,1.38h4.45v4.82Z"/><path class="cls-1" d="M301.12,43.87a10.78,10.78,0,0,1-4.39-.86,7.06,7.06,0,0,1-3.08-2.5,6.83,6.83,0,0,1-1.14-4,6.62,6.62,0,0,1,1.14-4,6.84,6.84,0,0,1,3.14-2.41,12.31,12.31,0,0,1,4.61-.81h6.3V28a3.65,3.65,0,0,0-1-2.66,4.39,4.39,0,0,0-3.24-1,4.57,4.57,0,0,0-3.24,1,4.66,4.66,0,0,0-1.39,2.57l-5.37-1.81a9.29,9.29,0,0,1,1.78-3.22,8.82,8.82,0,0,1,3.29-2.36,12.52,12.52,0,0,1,5-.9,10.61,10.61,0,0,1,7.18,2.27,8.18,8.18,0,0,1,2.64,6.57V37q0,1.38,1.29,1.38h1.85v4.82h-3.88a4.61,4.61,0,0,1-2.83-.83,2.66,2.66,0,0,1-1.11-2.23v0h-.88a6.1,6.1,0,0,1-.83,1.46,5.45,5.45,0,0,1-2,1.59A8.5,8.5,0,0,1,301.12,43.87Zm1-4.72a5.86,5.86,0,0,0,4-1.37,4.62,4.62,0,0,0,1.55-3.64v-.46h-5.88a4.13,4.13,0,0,0-2.55.7,2.27,2.27,0,0,0-.92,1.94,2.51,2.51,0,0,0,1,2A4.43,4.43,0,0,0,302.14,39.15Z"/><path class="cls-1" d="M330.62,43.87a13.1,13.1,0,0,1-6-1.39,10.47,10.47,0,0,1-4.29-4,12.26,12.26,0,0,1-1.57-6.39v-.65A12.19,12.19,0,0,1,320.29,25a10.41,10.41,0,0,1,4.29-4,13,13,0,0,1,6-1.39,12.63,12.63,0,0,1,5.65,1.16,10.13,10.13,0,0,1,3.82,3.17A11,11,0,0,1,342,28.5l-5.65,1.2a6.65,6.65,0,0,0-.83-2.5,4.77,4.77,0,0,0-1.83-1.76,6.09,6.09,0,0,0-2.94-.65,6.52,6.52,0,0,0-3.17.77,5.37,5.37,0,0,0-2.23,2.27,7.67,7.67,0,0,0-.81,3.68V32a7.67,7.67,0,0,0,.81,3.68,5.43,5.43,0,0,0,2.23,2.27,6.52,6.52,0,0,0,3.17.76,5.41,5.41,0,0,0,4-1.36,6.44,6.44,0,0,0,1.74-3.59l5.65,1.34a12.85,12.85,0,0,1-2.06,4.47,10.22,10.22,0,0,1-3.82,3.17A12.77,12.77,0,0,1,330.62,43.87Z"/><path class="cls-1" d="M346.5,43.22V10.81h5.84V28.73h.83l7.59-8.47h7.59l-10.6,11.11,11,11.85h-7.5l-8.06-9.12h-.83v9.12Z"/><path class="cls-1" d="M138.32,84.39a13.26,13.26,0,0,1-6.1-1.39,10.48,10.48,0,0,1-4.32-4,12.1,12.1,0,0,1-1.59-6.38v-.65a12.17,12.17,0,0,1,1.59-6.39,10.55,10.55,0,0,1,4.32-4,13.26,13.26,0,0,1,6.1-1.39A13,13,0,0,1,144,61.29a10.28,10.28,0,0,1,3.86,3.17A11.08,11.08,0,0,1,149.83,69l-5.71,1.2a6.49,6.49,0,0,0-.84-2.5A4.66,4.66,0,0,0,141.43,66a6,6,0,0,0-3-.65,6.66,6.66,0,0,0-3.2.76A5.45,5.45,0,0,0,133,68.35,7.56,7.56,0,0,0,132.2,72v.46a7.56,7.56,0,0,0,.82,3.68,5.39,5.39,0,0,0,2.24,2.27,6.67,6.67,0,0,0,3.2.77,5.53,5.53,0,0,0,4-1.37,6.39,6.39,0,0,0,1.75-3.59L150,75.59a12.71,12.71,0,0,1-2.08,4.47A10.28,10.28,0,0,1,144,83.23,13,13,0,0,1,138.32,84.39Z"/><path class="cls-1" d="M154.1,83.74V51.34h5.77v32.4Z"/><path class="cls-1" d="M176.56,84.39A13.32,13.32,0,0,1,170.41,83a10.4,10.4,0,0,1-4.31-4,12.12,12.12,0,0,1-1.57-6.34v-.74a12.15,12.15,0,0,1,1.57-6.34,10.46,10.46,0,0,1,4.31-4,14.32,14.32,0,0,1,12.31,0,10.46,10.46,0,0,1,4.31,4,12.15,12.15,0,0,1,1.57,6.34v.74A12.12,12.12,0,0,1,187,79a10.4,10.4,0,0,1-4.31,4A13.33,13.33,0,0,1,176.56,84.39Zm0-5.18A6.07,6.07,0,0,0,181,77.47a6.71,6.71,0,0,0,1.76-5V72a6.74,6.74,0,0,0-1.74-5,6.6,6.6,0,0,0-8.91,0,6.71,6.71,0,0,0-1.76,5v.46a6.71,6.71,0,0,0,1.76,5A6,6,0,0,0,176.56,79.21Z"/><path class="cls-1" d="M202,84.11a8.94,8.94,0,0,1-4.7-1.22,8.37,8.37,0,0,1-3.12-3.41,10.83,10.83,0,0,1-1.11-5V60.78h5.83V74a5.33,5.33,0,0,0,1.27,3.89,4.89,4.89,0,0,0,3.64,1.3A5.09,5.09,0,0,0,208,77.42a7.52,7.52,0,0,0,1.49-5V60.78h5.83v23h-5.74v-3h-.84A6.28,6.28,0,0,1,206.61,83,7.88,7.88,0,0,1,202,84.11Z"/><path class="cls-1" d="M230.07,84.39A10.15,10.15,0,0,1,225,83a10,10,0,0,1-3.82-4,13.29,13.29,0,0,1-1.43-6.39v-.74a13.29,13.29,0,0,1,1.43-6.39,10,10,0,0,1,8.94-5.37,10.63,10.63,0,0,1,3.49.49,7.22,7.22,0,0,1,2.3,1.22,5.88,5.88,0,0,1,1.34,1.58H238V51.34h5.83v32.4h-5.74V81h-.83a7.46,7.46,0,0,1-2.43,2.37A8.86,8.86,0,0,1,230.07,84.39Zm1.76-5.09a6.21,6.21,0,0,0,4.49-1.74,6.72,6.72,0,0,0,1.8-5.07V72A6.76,6.76,0,0,0,236.34,67a6.69,6.69,0,0,0-9,0A6.7,6.7,0,0,0,225.53,72v.46a6.68,6.68,0,0,0,1.81,5.07A6.21,6.21,0,0,0,231.83,79.3Z"/></g><g id="Image"><path class="cls-2" d="M81.43,52,52,63.48l22.53,8.78L104,60.78ZM0,60.78,29.47,72.26,52,63.48,22.53,52Z"/><polygon class="cls-1" points="52 81.04 0 60.78 0 83.74 52 104 104 83.74 104 60.78 52 81.04"/><polygon class="cls-2" points="52 0 0 20.26 29.47 31.74 52 22.96 74.53 31.74 104 20.26 52 0"/><polygon class="cls-1" points="52 40.51 0 20.26 0 43.22 52 63.48 104 43.22 104 20.26 52 40.51"/></g></g></g></g></svg>